{"title":"Kendra On Top S04E10","uid":12520922,"size":138748054,"categoryP":"video","categoryS":"tv_shows","magnet":"?xt=urn:btih:ee61b1d83d29bef6a7191c29e58a23e05bab918d&amp;dn=Kendra+On+Top+S04E10&amp;tr=udp%3A%2F%2Ftracker.leechers-paradise.org%3A6969&amp;tr=udp%3A%2F%2Fzer0day.ch%3A1337&amp;tr=udp%3A%2F%2Fopen.demonii.com%3A1337&amp;tr=udp%3A%2F%2Ftracker.coppersurfer.tk%3A6969&amp;tr=udp%3A%2F%2Fexodus.desync.com%3A6969","seeders":0,"leechers":1,"uploader":"Joker__TPB","files":3,"time":1443872466,"description":"===================================================================================\r\nHugh Hefner's ex-girlfriend deals with marriage| motherhood| celebrity and the paparazzi.\r\n===================================================================================\r\n\r\nVideo\r\nID                                       : 1\r\nFormat                                   : AVC\r\nFormat/Info                              : Advanced Video Codec\r\nFormat profile                           :   \r\nFormat settings, CABAC                   : Yes\r\nFormat settings, ReFrames                : 5 frames\r\nCodec ID                                 : avc1\r\nCodec ID/Info                            : Advanced Video Coding\r\nDuration                                 : 21mn 1s\r\nBit rate                                 : 747 Kbps\r\nMaximum bit rate                         : 3 668 Kbps\r\nWidth                                    : 720 pixels\r\nHeight                                   : 404 pixels\r\nDisplay aspect ratio                     : 16:9\r\nOriginal display aspect ratio            : 16:9\r\nFrame rate mode                          : Constant\r\nFrame rate                               : 23.976 fps\r\nColor space                              : YUV\r\nChroma subsampling                       : 4:2:0\r\nBit depth                                : 8 bits\r\nScan type                                : Progressive\r\nBits/(Pixel*Frame)                       : 0.107\r\nStream size                              : 112 MiB (85%)\r\nWriting library                          : x264 core 148 r2597 e86f3a1\r\nEncoding settings                        : cabac=1 / ref=5 / deblock=1:-1:-1 / analyse=0x3:0x113 / me=umh / subme=8 / psy=1 / psy_rd=1.00:0.15 / mixed_ref=1 / me_range=16 / chroma_me=1 / trellis=1 / 8x8dct=1 / cqm=0 / deadzone=21,11 / fast_pskip=1 / chroma_qp_offset=-3 / threads=12 / lookahead_threads=2 / sliced_threads=0 / nr=0 / decimate=1 / interlaced=0 / bluray_compat=0 / constrained_intra=0 / bframes=3 / b_pyramid=2 / b_adapt=2 / b_bias=0 / direct=3 / weightb=1 / open_gop=0 / weightp=2 / keyint=240 / keyint_min=23 / scenecut=40 / intra_refresh=0 / rc_lookahead=50 / rc=crf / mbtree=1 / crf=21.0 / qcomp=0.60 / qpmin=0 / qpmax=69 / qpstep=4 / ip_ratio=1.40 / aq=1:1.00\r\nEncoded date                             : UTC 2015-10-03 08:37:07\r\nTagged date                              : UTC 2015-10-03 08:39:38\r\nColor range                              : Limited\r\nMatrix coefficients                      : BT.709\r\n\r\nAudio\r\nID                                       : 2\r\nFormat                                   : AAC\r\nFormat/Info                              : Advanced Audio Codec\r\nFormat profile                           : LC\r\nCodec ID                                 : 40\r\nDuration                                 : 21mn 1s\r\nBit rate mode                            : Variable\r\nBit rate                                 : 129 Kbps\r\nMaximum bit rate                         : 151 Kbps\r\nChannel(s)                               : 2 channels\r\nChannel positions                        : Front: L R\r\nSampling rate                            : 48.0 KHz\r\nCompression mode                         : Lossy\r\nStream size                              : 19.4 MiB (15%)\r\nEncoded date                             : UTC 2015-10-03 08:37:49\r\nTagged date                              : UTC 2015-10-03 08:39:38\r\n\r\n===================================================================================","torrent":{"xt":"urn:btih:ee61b1d83d29bef6a7191c29e58a23e05bab918d","amp;dn":"Kendra+On+Top+S04E10","amp;tr":["udp%3A%2F%2Ftracker.leechers-paradise.org%3A6969","udp%3A%2F%2Fzer0day.ch%3A1337","udp%3A%2F%2Fopen.demonii.com%3A1337","udp%3A%2F%2Ftracker.coppersurfer.tk%3A6969","udp%3A%2F%2Fexodus.desync.com%3A6969"],"infoHash":"ee61b1d83d29bef6a7191c29e58a23e05bab918d","infoHashBuffer":{"type":"Buffer","data":[238,97,177,216,61,41,190,246,167,25,28,41,229,138,35,224,91,171,145,141]},"announce":[],"urlList":[]}}